<?xml version="1.0" encoding="utf-8"?>
<!-- Generator: Adobe Illustrator 21.0.0, SVG Export Plug-In . SVG Version: 6.00 Build 0)  -->
<svg version="1.1" id="Layer_1" xmlns="http://www.w3.org/2000/svg" xmlns:xlink="http://www.w3.org/1999/xlink" x="0px" y="0px"
	 viewBox="0 0 799 216" style="enable-background:new 0 0 799 216;" xml:space="preserve">
<style type="text/css">
	.st0{fill:#D81F26;}
</style>
<g>
	<path class="st0" d="M44.4,62.5c0,49.2,0,98.4,0,147.7c-10.1,1.6-19.7,3.1-29.4,4.7c0-69.5,0-138.7,0-208.5
		c13.8-0.4,27.5-0.8,41.3-1.2c11.1,39.6,22,78.9,33,118.2c0.3-0.1,0.7-0.1,1-0.2c0-39.5,0-79,0-119c10,0,19.5,0,29,0
		c0,65.1,0,130.3,0,195.9c-11.4,1.4-22.4,2.8-33.9,4.2C72,157,58.7,109.7,45.3,62.4C45,62.4,44.7,62.4,44.4,62.5z"/>
	<path class="st0" d="M140.7,101.9c0-18.1-0.2-36.3,0.1-54.4c0.2-13.8,4-26.4,14.8-35.9c7-6.1,15.4-9.2,24.4-10.6
		c11.9-1.8,23.6-1.4,35,2.7c15.9,5.9,24.6,17.9,25.7,34.3c1.1,16.6,0.5,33.4,0.6,50.1c0.1,18.2,0.2,36.5-0.1,54.7
		c-0.1,6.6-1,13.5-2.7,19.9c-3.4,12.1-11.4,20.9-22.8,26.1c-14.5,6.7-29.8,8.4-45.4,5.3c-16.5-3.3-26.8-14.9-28.9-31.5
		c-0.5-3.9-0.7-7.8-0.8-11.7c-0.1-16.4,0-32.8,0-49.2C140.6,101.9,140.6,101.9,140.7,101.9z M173.8,97.6c-0.2,0-0.3,0-0.5,0
		c0,17.6-0.1,35.2,0,52.7c0,6.2,0.7,12.3,6.6,16.1c9.9,6.2,24.8,0.2,27.5-11.1c0.6-2.5,0.8-5.1,0.8-7.7c0.1-28.3,0.1-56.6,0.1-85
		c0-6.6,0.2-13.2-0.1-19.9c-0.3-6-2.2-11.4-8.2-14.1c-13.3-6.1-26.3,2-26.4,16.5C173.7,62.6,173.8,80.1,173.8,97.6z"/>
	<path class="st0" d="M684.1,126.2c-0.7,1.9-1.1,2.9-1.5,4c-8.2,23.2-16.4,46.4-24.5,69.6c-0.8,2.4-1.8,3.2-4.3,2.9
		c-9.1-1.2-18.2-2.3-27.6-3.4c4-10.7,8-21.1,11.9-31.5c7.9-21.2,15.9-42.4,23.6-63.7c0.7-1.9,0.5-4.5-0.2-6.5
		c-10.6-30.1-21.4-60.2-32.1-90.3c-0.4-1-0.7-2-1.1-3.4c2.4,0,4.5,0,6.6,0c8,0.1,16.1,0.4,24.1,0.3c2.4,0,3.5,0.7,4.3,3.1
		c7.5,23.2,15.2,46.3,22.8,69.4c0.3,0.8,0.6,1.6,1.2,3.2c0.8-2,1.4-3.2,1.8-4.6c7.5-22.1,15.1-44.3,22.5-66.5
		c0.8-2.4,1.7-3.3,4.5-3.2c8.9,0.3,17.8,0.1,27.3,0.1c-1,3.1-1.7,5.3-2.5,7.5c-10.4,29.7-20.7,59.3-31,89c-0.5,1.6-0.6,3.6-0.1,5.2
		c11.6,35.3,23.3,70.6,34.9,105.9c0.2,0.7,0.4,1.4,0.7,2.7c-7-1.1-13.7-2.2-20.3-3.3c-3.4-0.5-6.8-1.3-10.3-1.6
		c-2.9-0.2-4-1.5-4.8-4.1c-8.1-25.7-16.4-51.4-24.6-77.1C685.2,129,684.8,128,684.1,126.2z"/>
	<path class="st0" d="M370.2,1.4c29.1,0,57.8,0,86.9,0c0,8.6,0,17.1,0,26c-18,0-35.9,0-54,0c0,18.6,0,36.8,0,55.7
		c14.1,0,28.2,0,42.4,0c0,9.1,0,17.6,0,26.1c-14.1,0-28.1,0-42.4,0c0,25.3,0,50.6,0,76c-11,0-21.8,0-32.9,0
		C370.2,123.8,370.2,62.8,370.2,1.4z"/>
	<path class="st0" d="M321.2,185.9c-11.3,0.4-22,0.7-33.2,1.1c0-53.1,0-105.9,0-159c-11.6,0-22.9,0-34.4,0c0-8.7,0-17.2,0-26.3
		c33.9,0,67.8,0,101.9,0c0,8.3,0,16.7,0,25.5c-11.3,0-22.6,0-34.3,0C321.2,80.2,321.2,132.9,321.2,185.9z"/>
	<path class="st0" d="M506.5,162.4c18.6,1.2,36.7,2.3,54.9,3.5c0,9.1,0,17.9,0,26.9c-3.8-0.3-7.4-0.5-11-0.8
		c-19-1.3-38.1-2.5-57.1-3.7c-5.4-0.3-10.8-0.5-16.2-0.7c-2-0.1-3.1-0.7-3.1-3.1c0-60.5-0.1-120.9-0.2-181.4c0-0.4,0.1-0.8,0.2-1.5
		c10.7,0,21.4,0,32.7,0C506.5,55.3,506.5,108.7,506.5,162.4z"/>
	<path class="st0" d="M576.1,3c10.6,0,21.2,0,32.4,0c0,64.9,0,129.4,0,194.3c-10.4-1-21.1-2.1-32.4-3.2
		C576.1,130.3,576.1,66.7,576.1,3z"/>
</g>
</svg>
